<svg width="223.7629150390625px" height="154.4px" xmlns="http://www.w3.org/2000/svg" viewBox="138.11854248046876 -2.200000000000003 223.7629150390625 154.4" style="background: none;" preserveAspectRatio="xMidYMid"><defs><linearGradient id="editing-gradient-gradient" x1="0" x2="1" y1="0.5" y2="0.5" gradientUnits="objectBoundingBox"><stop offset="0" stop-color="#f0f"></stop><stop offset="1" stop-color="#00ffff"></stop></linearGradient></defs><g><g transform="translate(179.29627746343613, 104.92000198364258)"><path d="M9.98-30.78L9.98-30.78L9.98-30.78Q5.44-30.78 5.44-22.34L5.44-22.34L5.44-21.89L5.44-21.89Q5.44-21.06 5.06-21.06L5.06-21.06L5.06-21.06Q4.10-21.06 3.62-23.36L3.62-23.36L3.62-23.36Q3.14-25.66 3.14-27.26L3.14-27.26L3.14-27.26Q3.14-29.89 4.32-31.94L4.32-31.94L4.32-31.94Q5.50-33.98 8-33.98L8-33.98L8-33.98Q12.93-33.98 17.47-28.22L17.47-28.22L17.47-28.22Q21.31-32.70 25.70-37.28L25.70-37.28L25.70-37.28Q30.08-41.86 32.51-44.16L32.51-44.16L34.94-46.53L34.94-46.53Q38.91-52.48 41.47-52.48L41.47-52.48L41.47-52.48Q42.11-52.48 42.11-51.90L42.11-51.90L42.11-51.90Q42.11-51.52 41.86-51.01L41.86-51.01L41.86-51.01Q36.22-39.94 31.55-26.05L31.55-26.05L31.55-26.05Q25.66-8.38 25.66 1.02L25.66 1.02L25.66 1.02Q25.66 3.97 26.37 5.31L26.37 5.31L26.37 5.31Q26.62 5.63 26.62 5.95L26.62 5.95L26.62 5.95Q26.62 6.40 25.86 6.40L25.86 6.40L25.86 6.40Q24.13 6.40 22.98 5.54L22.98 5.54L22.98 5.54Q21.82 4.67 21.34 3.26L21.34 3.26L21.34 3.26Q20.86 1.86 20.67 0.74L20.67 0.74L20.67 0.74Q20.48-0.38 20.48-1.54L20.48-1.54L20.48-1.54Q20.48-3.46 21.18-7.23L21.18-7.23L21.18-7.23Q21.89-11.01 21.89-12.74L21.89-12.74L21.89-12.74Q21.89-15.30 20.77-18.78L20.77-18.78L20.77-18.78Q19.65-22.27 17.79-25.15L17.79-25.15L17.79-25.15Q15.74-22.34 14.05-19.52L14.05-19.52L14.05-19.52Q12.35-16.70 11.65-15.36L11.65-15.36L11.01-13.95L11.01-13.95Q8.70-9.22 6.46-5.31L6.46-5.31L6.46-5.31Q4.22-1.41 3.14 0.13L3.14 0.13L2.05 1.60L2.05 1.60Q1.34 2.43 0.77 2.43L0.77 2.43L0.77 2.43Q0.06 2.43 0.06 0.96L0.06 0.96L0.06 0.96Q0.26-8.06 16.45-27.01L16.45-27.01L16.45-27.01Q13.31-30.78 9.98-30.78ZM32.64-41.09L31.94-40.83L31.94-40.83Q24.90-34.69 18.75-26.43L18.75-26.43L18.75-26.43Q21.44-22.34 22.91-17.09L22.91-17.09L22.91-17.09Q23.10-16.51 23.23-16.51L23.23-16.51L23.55-17.09L23.55-17.09Q25.15-22.53 27.42-28.38L27.42-28.38L27.42-28.38Q29.70-34.24 31.17-37.38L31.17-37.38L32.64-40.45L32.64-40.45Q32.83-40.83 32.83-40.96L32.83-40.96L32.83-40.96Q32.83-41.09 32.64-41.09L32.64-41.09ZM42.24-8.51L43.39-10.69L45.38-14.08L45.38-14.08Q45.38-14.27 45.25-14.27L45.25-14.27L45.25-14.27Q45.12-14.27 44.93-14.08L44.93-14.08L44.93-14.08Q42.56-11.33 40-8.74L40-8.74L40-8.74Q37.44-6.14 36.10-4.93L36.10-4.93L34.69-3.71L34.69-3.71Q29.70 1.02 27.78 1.02L27.78 1.02L27.78 1.02Q26.88 1.02 26.88-0.13L26.88-0.13L26.88-0.13Q26.88-1.41 27.94-4.03L27.94-4.03L27.94-4.03Q28.99-6.66 30.08-8.70L30.08-8.70L31.10-10.69L31.10-10.69Q36.48-20.74 39.04-24.13L39.04-24.13L39.04-24.13Q40.32-25.79 42.18-26.91L42.18-26.91L42.18-26.91Q44.03-28.03 45.06-28.03L45.06-28.03L45.06-28.03Q45.70-28.03 45.70-27.58L45.70-27.58L45.70-27.58Q45.70-27.33 45.44-26.88L45.44-26.88L45.44-26.88Q45.31-26.62 42.82-22.62L42.82-22.62L42.82-22.62Q40.32-18.62 38.78-15.74L38.78-15.74L38.78-15.74Q34.56-8 34.56-6.85L34.56-6.85L34.56-6.85Q34.56-6.40 34.94-6.40L34.94-6.40L34.94-6.40Q35.52-6.40 36.93-7.55L36.93-7.55L36.93-7.55Q41.09-11.14 46.08-17.22L46.08-17.22L46.08-17.22Q48.83-20.16 51.84-24.90L51.84-24.90L51.84-24.90Q53.89-28.03 57.28-28.03L57.28-28.03L57.28-28.03Q57.86-28.03 57.86-27.52L57.86-27.52L57.34-26.30L57.34-26.30Q56.45-24.70 53.34-19.30L53.34-19.30L53.34-19.30Q50.24-13.89 49.79-13.12L49.79-13.12L49.79-13.12Q47.17-8.51 47.17-7.04L47.17-7.04L47.17-7.04Q47.17-6.46 47.55-6.46L47.55-6.46L47.55-6.46Q48.19-6.46 51.65-9.66L51.65-9.66L51.65-9.66Q54.34-12.35 58.75-17.41L58.75-17.41L58.75-17.41Q58.94-17.60 59.07-17.60L59.07-17.60L59.07-17.60Q59.20-17.60 59.20-17.34L59.20-17.34L59.20-17.34Q59.20-16.13 58.24-14.98L58.24-14.98L58.24-14.98Q53.50-9.73 49.86-6.21L49.86-6.21L49.86-6.21Q47.36-3.84 44.26-1.47L44.26-1.47L44.26-1.47Q41.15 0.90 39.74 0.90L39.74 0.90L39.74 0.90Q38.78 0.90 38.78-0.45L38.78-0.45L38.78-0.45Q38.78-1.22 39.94-3.78L39.94-3.78L39.94-3.78Q41.09-6.34 42.24-8.51L42.24-8.51ZM68.29-6.21L68.29-6.21L68.29-6.21Q65.41-3.46 61.79-1.06L61.79-1.06L61.79-1.06Q58.18 1.34 55.68 1.34L55.68 1.34L55.68 1.34Q52.74 1.34 52.74-3.20L52.74-3.20L52.74-3.20Q52.74-8 56.13-13.86L56.13-13.86L56.13-13.86Q59.52-19.71 64.74-23.87L64.74-23.87L64.74-23.87Q69.95-28.03 74.62-28.03L74.62-28.03L74.62-28.03Q77.12-28.03 77.12-26.18L77.12-26.18L77.12-26.18Q77.12-22.98 72.96-18.94L72.96-18.94L72.96-18.94Q72.58-18.56 71.30-17.60L71.30-17.60L71.30-17.60Q70.02-16.64 69.50-16.64L69.50-16.64L69.50-16.64Q69.18-16.64 69.18-16.96L69.18-16.96L69.38-17.54L69.38-17.54Q71.94-22.08 71.94-24.45L71.94-24.45L71.94-24.45Q71.94-25.73 71.10-25.73L71.10-25.73L71.10-25.73Q69.12-25.73 66.08-21.86L66.08-21.86L66.08-21.86Q63.04-17.98 60.80-13.02L60.80-13.02L60.80-13.02Q58.56-8.06 58.56-5.18L58.56-5.18L58.56-5.18Q58.56-2.88 60.22-2.88L60.22-2.88L60.22-2.88Q63.10-2.88 67.46-7.04L67.46-7.04L67.46-7.04Q70.85-10.18 77.18-17.41L77.18-17.41L77.18-17.41Q77.38-17.60 77.50-17.60L77.50-17.60L77.50-17.60Q77.63-17.60 77.63-17.34L77.63-17.34L77.63-17.34Q77.63-16.13 76.67-14.98L76.67-14.98L76.67-14.98Q71.94-9.73 68.29-6.21ZM82.24-9.66L82.24-9.66L82.24-9.66Q84.93-12.35 89.34-17.41L89.34-17.41L89.34-17.41Q89.54-17.60 89.66-17.60L89.66-17.60L89.66-17.60Q89.79-17.60 89.79-17.34L89.79-17.34L89.79-17.34Q89.79-16.13 88.83-14.98L88.83-14.98L88.83-14.98Q84.10-9.73 80.45-6.21L80.45-6.21L80.45-6.21Q72.77 1.22 70.27 1.22L70.27 1.22L70.27 1.22Q69.38 1.22 69.38 0.06L69.38 0.06L69.38 0.06Q69.38-1.28 70.40-3.97L70.40-3.97L70.40-3.97Q71.42-6.66 72.45-8.70L72.45-8.70L73.47-10.69L73.47-10.69Q74.94-13.31 78.34-19.65L78.34-19.65L78.34-19.65Q81.73-25.98 84.90-31.62L84.90-31.62L84.90-31.62Q88.06-37.25 90.88-41.79L90.88-41.79L85.82-41.79L85.82-41.79Q85.18-41.79 85.18-42.11L85.18-42.11L85.18-42.11Q85.18-42.43 85.70-42.75L85.70-42.75L85.70-42.75Q86.21-43.07 86.78-43.07L86.78-43.07L86.78-43.07Q88.19-43.07 91.71-43.14L91.71-43.14L91.71-43.14Q94.85-48.06 97.09-50.94L97.09-50.94L97.09-50.94Q99.07-53.44 99.84-53.44L99.84-53.44L99.84-53.44Q100.29-53.44 100.29-52.86L100.29-52.86L100.29-52.86Q100.29-51.52 97.86-47.10L97.86-47.10L95.68-43.14L102.27-43.14L102.27-43.14Q102.85-43.14 102.85-42.82L102.85-42.82L102.85-42.82Q102.85-41.79 100.99-41.79L100.99-41.79L94.98-41.79L94.98-41.79Q80.19-13.76 79.42-12.42L79.42-12.42L79.42-12.42Q76.74-7.49 76.74-6.02L76.74-6.02L76.74-6.02Q76.74-5.57 77.06-5.57L77.06-5.57L77.06-5.57Q77.95-5.57 82.24-9.66ZM92.10-6.21L92.10-6.21L92.10-6.21Q84.61 0.83 82.50 0.83L82.50 0.83L82.50 0.83Q81.41 0.83 81.41-0.64L81.41-0.64L81.41-0.64Q81.41-2.11 82.56-4.93L82.56-4.93L82.56-4.93Q83.71-7.74 84.86-9.86L84.86-9.86L86.02-11.90L86.02-11.90Q90.88-20.42 93.38-24.13L93.38-24.13L93.38-24.13Q94.46-25.73 96.16-26.85L96.16-26.85L96.16-26.85Q97.86-27.97 99.33-27.97L99.33-27.97L99.33-27.97Q99.84-27.97 99.84-27.52L99.84-27.52L99.84-27.52Q99.84-27.20 99.39-26.30L99.39-26.30L99.39-26.30Q98.62-24.90 95.62-19.58L95.62-19.58L95.62-19.58Q92.61-14.27 92.03-13.18L92.03-13.18L92.03-13.18Q89.41-8.58 89.41-7.04L89.41-7.04L89.41-7.04Q89.41-6.46 89.79-6.46L89.79-6.46L89.79-6.46Q90.43-6.46 93.89-9.66L93.89-9.66L93.89-9.66Q96.58-12.35 100.99-17.41L100.99-17.41L100.99-17.41Q101.18-17.60 101.31-17.60L101.31-17.60L101.31-17.60Q101.44-17.60 101.44-17.34L101.44-17.34L101.44-17.34Q101.44-16.13 100.48-14.98L100.48-14.98L100.48-14.98Q95.74-9.73 92.10-6.21ZM100.61-31.62L100.61-31.62L100.61-31.62Q99.01-31.62 99.01-33.54L99.01-33.54L99.01-33.54Q99.01-35.33 100.35-37.15L100.35-37.15L100.35-37.15Q101.70-38.98 103.30-38.98L103.30-38.98L103.30-38.98Q105.22-38.98 105.22-36.80L105.22-36.80L105.22-36.80Q105.22-35.01 103.74-33.31L103.74-33.31L103.74-33.31Q102.27-31.62 100.61-31.62ZM122.88-22.53L122.88-22.53L122.88-22.53Q123.46-22.40 123.46-22.14L123.46-22.14L123.46-22.14Q123.46-21.76 122.94-21.25L122.94-21.25L122.94-21.25Q122.24-20.54 120.86-19.39L120.86-19.39L120.86-19.39Q119.49-18.24 119.23-17.98L119.23-17.98L118.34-16.77L118.34-16.77Q116.99-12.99 114.21-8.93L114.21-8.93L114.21-8.93Q111.42-4.86 107.42-1.79L107.42-1.79L107.42-1.79Q103.42 1.28 99.78 1.28L99.78 1.28L99.78 1.28Q95.23 1.28 95.23-4.29L95.23-4.29L95.23-4.29Q95.23-9.22 98.43-14.94L98.43-14.94L98.43-14.94Q101.63-20.67 106.72-24.74L106.72-24.74L106.72-24.74Q111.81-28.80 116.74-28.80L116.74-28.80L116.74-28.80Q120.32-28.80 120.32-25.98L120.32-25.98L120.32-25.98Q120.32-24.45 118.78-21.82L118.78-21.82L118.78-21.82Q118.72-21.76 118.72-21.63L118.72-21.63L118.72-21.63Q118.72-21.50 118.85-21.50L118.85-21.50L118.85-21.50Q121.22-22.46 122.88-22.53ZM116.80-20.99L116.80-20.99L116.80-20.99Q117.31-23.23 117.31-24.45L117.31-24.45L117.31-24.45Q117.31-27.14 115.52-27.14L115.52-27.14L115.52-27.14Q113.02-27.14 109.31-22.53L109.31-22.53L109.31-22.53Q105.60-17.92 102.94-12.16L102.94-12.16L102.94-12.16Q100.29-6.40 100.29-3.07L100.29-3.07L100.29-3.07Q100.29-0.64 102.02-0.64L102.02-0.64L102.02-0.64Q104.70-0.64 108.45-6.02L108.45-6.02L108.45-6.02Q112.19-11.39 112.96-16.83L112.96-16.83L112.96-16.83Q112.90-16.96 112.90-17.22L112.90-17.22L112.90-17.22Q112.90-19.07 116.22-20.54L116.22-20.54L116.22-20.54Q116.74-20.74 116.80-20.99ZM138.62-6.21L138.62-6.21L138.62-6.21Q131.14 0.83 128.77 0.83L128.77 0.83L128.77 0.83Q127.68 0.83 127.68-0.32L127.68-0.32L127.68-0.32Q127.68-1.02 128-2.08L128-2.08L128-2.08Q128.32-3.14 128.80-4.19L128.80-4.19L128.80-4.19Q129.28-5.25 129.73-6.14L129.73-6.14L129.73-6.14Q130.18-7.04 130.62-7.81L130.62-7.81L130.62-7.81Q131.07-8.58 131.07-8.64L131.07-8.64L131.07-8.64Q132.03-10.37 133.95-13.47L133.95-13.47L133.95-13.47Q135.87-16.58 137.02-18.59L137.02-18.59L137.02-18.59Q138.18-20.61 138.18-21.06L138.18-21.06L138.18-21.06Q138.18-21.38 137.86-21.38L137.86-21.38L136.96-21.06L136.96-21.06Q134.02-18.94 129.92-14.50L129.92-14.50L129.92-14.50Q125.82-10.05 123.20-6.66L123.20-6.66L120.58-3.33L120.58-3.33Q119.74-2.11 119.10-1.34L119.10-1.34L119.10-1.34Q118.46-0.58 117.28 0.16L117.28 0.16L117.28 0.16Q116.10 0.90 114.88 0.90L114.88 0.90L114.88 0.90Q113.98 0.90 113.98 0.38L113.98 0.38L113.98 0.38Q113.98-0.13 115.20-2.59L115.20-2.59L115.20-2.59Q116.42-5.06 117.63-7.30L117.63-7.30L118.85-9.47L125.12-20.48L125.12-20.48Q126.08-22.08 126.69-22.94L126.69-22.94L126.69-22.94Q127.30-23.81 128.38-25.12L128.38-25.12L128.38-25.12Q129.47-26.43 130.72-27.07L130.72-27.07L130.72-27.07Q131.97-27.71 133.38-27.84L133.38-27.84L133.38-27.84Q133.89-27.84 133.89-27.39L133.89-27.39L133.89-27.39Q133.89-27.01 133.70-26.75L133.70-26.75L133.70-26.75Q132.22-24.45 129.18-19.14L129.18-19.14L129.18-19.14Q126.14-13.82 125.31-12.22L125.31-12.22L125.31-12.22Q125.12-11.84 125.12-11.65L125.12-11.65L125.12-11.65Q125.12-11.52 125.25-11.52L125.25-11.52L125.25-11.52Q125.38-11.52 125.89-11.90L125.89-11.90L125.89-11.90Q127.10-13.31 129.06-15.42L129.06-15.42L129.06-15.42Q131.01-17.54 135.68-21.79L135.68-21.79L135.68-21.79Q140.35-26.05 143.36-27.52L143.36-27.52L143.36-27.52Q144.06-27.84 144.70-27.84L144.70-27.84L144.70-27.84Q145.60-27.84 145.60-26.82L145.60-26.82L145.60-26.82Q145.09-23.81 140.67-16.51L140.67-16.51L140.67-16.51Q135.81-8.51 135.81-7.04L135.81-7.04L135.81-7.04Q135.81-6.53 136.26-6.53L136.26-6.53L136.26-6.53Q136.58-6.53 136.99-6.75L136.99-6.75L136.99-6.75Q137.41-6.98 137.92-7.39L137.92-7.39L137.92-7.39Q138.43-7.81 138.78-8.13L138.78-8.13L138.78-8.13Q139.14-8.45 139.71-8.99L139.71-8.99L139.71-8.99Q140.29-9.54 140.42-9.66L140.42-9.66L140.42-9.66Q143.10-12.35 147.52-17.41L147.52-17.41L147.52-17.41Q147.71-17.60 147.84-17.60L147.84-17.60L147.84-17.60Q147.97-17.60 147.97-17.34L147.97-17.34L147.97-17.34Q147.97-16.13 147.01-14.98L147.01-14.98L147.01-14.98Q142.27-9.73 138.62-6.21Z" fill="url(#editing-gradient-gradient)"></path></g></g><style>text {
  font-size: 64px;
  font-family: Arial Black;
  dominant-baseline: central;
  text-anchor: middle;
}</style></svg>